<svg xmlns="http://www.w3.org/2000/svg" viewBox="0 0 90 50" fill="none">
  <!-- Bro 1 - Purple -->
  <rect x="2" y="5" width="20" height="20" rx="2" fill="#7C3AED" stroke="#8B5CF6" stroke-width="1"/>
  <rect x="6" y="10" width="4" height="4" fill="#0A0118"/>
  <rect x="14" y="10" width="4" height="4" fill="#0A0118"/>
  <rect x="8" y="18" width="8" height="2" rx="1" fill="#0A0118"/>
  <rect x="5" y="28" width="14" height="10" rx="2" fill="#7C3AED" stroke="#8B5CF6" stroke-width="1"/>
  
  <!-- Dev - Pink -->
  <rect x="28" y="5" width="20" height="20" rx="2" fill="#EC4899" stroke="#F472B6" stroke-width="1"/>
  <rect x="30" y="9" width="16" height="5" rx="1" fill="#0A0118" opacity="0.9"/>
  <line x1="38" y1="9" x2="38" y2="14" stroke="#EC4899" stroke-width="1"/>
  <path d="M 33 18 Q 38 20 43 18" stroke="#0A0118" stroke-width="1.5" fill="none" stroke-linecap="round"/>
  <rect x="31" y="28" width="14" height="10" rx="2" fill="#EC4899" stroke="#F472B6" stroke-width="1"/>
  
  <!-- Lab Flask - Cyan accent -->
  <path d="M 62 12 L 62 18 L 58 26 Q 58 28 60 28 L 72 28 Q 74 28 74 26 L 70 18 L 70 12 Z" fill="none" stroke="#06B6D4" stroke-width="1.5"/>
  <rect x="60" y="10" width="12" height="2" rx="1" fill="#06B6D4"/>
  <circle cx="66" cy="22" r="2" fill="#06B6D4" opacity="0.5"/>
  <circle cx="63" cy="24" r="1.5" fill="#06B6D4" opacity="0.7"/>
</svg>
